<?xml version="1.0" encoding="UTF-8"?>
<svg id="Layer_1" data-name="Layer 1" xmlns="http://www.w3.org/2000/svg" xmlns:xlink="http://www.w3.org/1999/xlink" viewBox="0 0 608.94 608.67">
  <defs>
    <style>
      .cls-1 {
        fill: none;
      }

      .cls-1, .cls-2, .cls-3, .cls-4, .cls-5 {
        stroke-width: 0px;
      }

      .cls-2 {
        fill: url(#radial-gradient-2);
      }

      .cls-6 {
        clip-path: url(#clippath);
      }

      .cls-3 {
        fill: url(#radial-gradient);
      }

      .cls-4 {
        fill: url(#radial-gradient-3);
      }

      .cls-5 {
        fill: url(#radial-gradient-4);
      }
    </style>
    <clipPath id="clippath">
      <ellipse class="cls-1" cx="303.92" cy="304.23" rx="292.68" ry="293.04"/>
    </clipPath>
    <radialGradient id="radial-gradient" cx="304.15" cy="155.79" fx="304.15" fy="155.79" r="38.94" gradientTransform="translate(1.44 -1.87) scale(1 1.01)" gradientUnits="userSpaceOnUse">
      <stop offset="0" stop-color="#e5e2df"/>
      <stop offset="0" stop-color="#d6d4d1"/>
      <stop offset="0" stop-color="#b2b2b2"/>
      <stop offset=".18" stop-color="#a3a3a3"/>
      <stop offset=".54" stop-color="#7c7c7c"/>
      <stop offset="1" stop-color="#404040"/>
    </radialGradient>
    <radialGradient id="radial-gradient-2" cx="230.26" cy="301.49" fx="230.26" fy="301.49" r="260.85" gradientUnits="userSpaceOnUse">
      <stop offset="0" stop-color="#fff"/>
      <stop offset=".27" stop-color="#f0f0f0"/>
      <stop offset=".79" stop-color="#c9c9c9"/>
      <stop offset="1" stop-color="#b8b8b8"/>
    </radialGradient>
    <radialGradient id="radial-gradient-3" cx="304.16" cy="304.33" fx="304.16" fy="304.33" r="304.25" gradientUnits="userSpaceOnUse">
      <stop offset="0" stop-color="#e5e2df"/>
      <stop offset="0" stop-color="#d6d4d1"/>
      <stop offset="0" stop-color="#b2b2b2"/>
      <stop offset=".15" stop-color="#a3a3a3"/>
      <stop offset=".43" stop-color="#7c7c7c"/>
      <stop offset=".81" stop-color="#3d3d3d"/>
      <stop offset="1" stop-color="#1c1c1c"/>
    </radialGradient>
    <radialGradient id="radial-gradient-4" cx="304.17" cy="452.87" fx="304.17" fy="452.87" r="38.95" xlink:href="#radial-gradient-2"/>
  </defs>
  <g class="cls-6">
    <path class="cls-3" d="M303.74,195.06c-21.22-.21-38.52-17.86-38.47-39.25.05-21.18,17.69-39.14,38.61-39.3,21.54-.17,39.68,18.45,39.14,40.15-.54,21.61-17.93,38.61-39.28,38.39Z"/>
    <path class="cls-2" d="M261.21,595.4c-35.79-2.14-68.45-13.78-99.25-30.62C49.17,503.14-11.39,375.06,12.49,249.42,36.66,122.2,140.35,25.16,268.91,9.49c60.68-7.4,114.45,5.59,152.83,56.7,35.34,47.05,41.11,99.22,16.17,152.47-25.49,54.43-70.39,82.79-130.27,85.4-71.4,3.11-126.71,42.6-145.37,105.6-22.26,75.19,16,153.15,89.12,181.63,3.3,1.29,6.54,2.74,9.81,4.11ZM303.74,194.6c21.45.21,38.92-16.58,39.46-37.94.55-21.45-17.68-39.84-39.32-39.68-21.02.16-38.75,17.91-38.8,38.83-.05,21.14,17.33,38.57,38.65,38.78Z"/>
    <path class="cls-4" d="M608.32,304.54c-.11,168.42-135.7,304.06-304.03,304.13C135.44,608.74-.49,472.36,0,303.38.49,134.99,136.4-.32,304.73,0c168.38.32,303.7,136.06,303.59,304.54ZM261.21,595.4c-3.27-1.37-6.51-2.82-9.81-4.11-73.12-28.48-111.39-106.44-89.12-181.63,18.65-63,73.97-102.49,145.37-105.6,59.89-2.61,104.79-30.97,130.27-85.4,24.94-53.25,19.17-105.42-16.17-152.47C383.36,15.08,329.59,2.09,268.91,9.49,140.35,25.16,36.66,122.2,12.49,249.42c-23.88,125.64,36.68,253.72,149.47,315.36,30.81,16.84,63.47,28.47,99.25,30.62ZM303.76,491.68c21.07.23,38.91-17.01,39.48-38.15.57-20.95-16.71-38.9-37.96-39.46-21.94-.58-40.19,16.97-40.19,38.64,0,20.95,17.64,38.74,38.67,38.97Z"/>
    <path class="cls-5" d="M303.76,491.68c-21.03-.23-38.67-18.02-38.67-38.97,0-21.67,18.26-39.22,40.19-38.64,21.25.56,38.52,18.52,37.96,39.46-.57,21.14-18.41,38.38-39.48,38.15Z"/>
    <ellipse class="cls-1" cx="308.7" cy="303.43" rx="300.24" ry="300"/>
  </g>
</svg>